<svg width="277" height="277" viewBox="0 0 277 277" fill="none" xmlns="http://www.w3.org/2000/svg">
<path d="M137.61 11.0047C115.017 10.5514 58.9127 42.9263 33.6845 59.1705C25.0994 203.328 99.3908 257.122 137.61 266C236.564 233.814 248.877 114.703 242.664 59.1705C184.828 21.0912 148.529 11.1936 137.61 11.0047Z" fill="#FBB80A" stroke="#FBB80A"/>
<path d="M137.686 21.0043C117.02 20.5866 65.7021 50.4223 42.6261 65.3924C34.7734 198.243 102.727 247.819 137.686 256C228.199 226.338 239.461 116.569 233.778 65.3924C180.876 30.2997 147.674 21.1784 137.686 21.0043Z" fill="#0045B2" stroke="#0045B2"/>
<path d="M137.761 34.0039C119.024 33.6323 72.4916 60.1671 51.5677 73.4809C44.4474 191.633 106.063 235.724 137.761 243C219.833 216.62 230.045 118.996 224.892 73.4809C176.923 42.2708 146.818 34.1587 137.761 34.0039Z" fill="#FBB80A" stroke="#FBB80A"/>
</svg>
